<mxfile host="65bd71144e">
    <diagram id="-h532lA4RHCof17ApdwV" name="Page-1">
        <mxGraphModel dx="630" dy="445" grid="1" gridSize="10" guides="1" tooltips="1" connect="1" arrows="1" fold="1" page="1" pageScale="1" pageWidth="850" pageHeight="1100" math="0" shadow="0">
            <root>
                <mxCell id="0"/>
                <mxCell id="1" parent="0"/>
                <mxCell id="5" style="edgeStyle=none;html=1;exitX=0.5;exitY=1;exitDx=0;exitDy=0;entryX=0.5;entryY=0;entryDx=0;entryDy=0;fontFamily=JetBrainsMono Nerd Font;" edge="1" parent="1" source="2" target="4">
                    <mxGeometry relative="1" as="geometry"/>
                </mxCell>
                <mxCell id="2" value="Начало" style="rounded=1;whiteSpace=wrap;html=1;arcSize=50;container=0;strokeWidth=2;fontFamily=JetBrainsMono Nerd Font;fontSize=10;" vertex="1" parent="1">
                    <mxGeometry x="10" y="10" width="200" height="30" as="geometry"/>
                </mxCell>
                <mxCell id="3" value="&lt;div&gt;&lt;span style=&quot;background-color: transparent;&quot;&gt;Конец&lt;/span&gt;&lt;/div&gt;" style="rounded=1;whiteSpace=wrap;html=1;arcSize=50;container=0;strokeWidth=2;fontFamily=JetBrainsMono Nerd Font;fontSize=10;glass=0;shadow=0;" vertex="1" parent="1">
                    <mxGeometry x="10" y="690" width="200" height="30" as="geometry"/>
                </mxCell>
                <mxCell id="4" value="Ввод input" style="shape=parallelogram;perimeter=parallelogramPerimeter;whiteSpace=wrap;html=1;fixedSize=1;size=30;container=0;strokeWidth=2;fontFamily=JetBrainsMono Nerd Font;fontSize=10;rounded=0;" vertex="1" parent="1">
                    <mxGeometry x="10" y="60" width="200" height="30" as="geometry"/>
                </mxCell>
                <mxCell id="6" value="&lt;div style=&quot;font-size: 10px;&quot;&gt;&lt;br style=&quot;font-size: 10px;&quot;&gt;&lt;/div&gt;&lt;div style=&quot;font-size: 10px;&quot;&gt;A&lt;/div&gt;" style="shape=loopLimit;whiteSpace=wrap;html=1;size=20;direction=west;strokeWidth=2;fontFamily=JetBrainsMono Nerd Font;fontSize=10;rounded=0;" vertex="1" parent="1">
                    <mxGeometry x="10" y="360" width="200" height="41" as="geometry"/>
                </mxCell>
                <mxCell id="7" value="&lt;div style=&quot;font-size: 10px;&quot;&gt;A&lt;/div&gt;&lt;div style=&quot;font-size: 10px;&quot;&gt;input = NULL&lt;/div&gt;" style="shape=loopLimit;whiteSpace=wrap;html=1;size=18;direction=east;strokeWidth=2;fontFamily=JetBrainsMono Nerd Font;fontSize=10;rounded=0;" vertex="1" parent="1">
                    <mxGeometry x="10" y="110" width="200" height="39" as="geometry"/>
                </mxCell>
                <mxCell id="8" value="strlen(input) = 0" style="rhombus;whiteSpace=wrap;html=1;strokeWidth=2;fontFamily=JetBrainsMono Nerd Font;fontSize=10;" vertex="1" parent="1">
                    <mxGeometry x="10" y="170" width="200" height="60" as="geometry"/>
                </mxCell>
            </root>
        </mxGraphModel>
    </diagram>
</mxfile>